<svg width="56" height="56" viewBox="0 0 56 56" fill="none" xmlns="http://www.w3.org/2000/svg">
<path d="M12.7932 12.7932L28 6.49435L43.2068 12.7932L49.5056 28L43.2068 43.2068L28 49.5056L12.7932 43.2068L6.49435 28L12.7932 12.7932Z" fill="white" stroke="#DD00F0" stroke-width="12"/>
<path d="M25.556 34C25.628 33.124 25.778 32.212 26.006 31.264C26.234 30.316 26.51 29.386 26.834 28.474C27.17 27.562 27.542 26.704 27.95 25.9C28.358 25.084 28.772 24.382 29.192 23.794H23.774V21.508H32.504V23.452C32.12 23.872 31.694 24.454 31.226 25.198C30.77 25.942 30.332 26.788 29.912 27.736C29.504 28.672 29.144 29.68 28.832 30.76C28.532 31.84 28.346 32.92 28.274 34H25.556Z" fill="#222222"/>
</svg>
