<svg width="56" height="56" viewBox="0 0 56 56" fill="none" xmlns="http://www.w3.org/2000/svg">
<path d="M12.7932 12.7932L28 6.49435L43.2068 12.7932L49.5056 28L43.2068 43.2068L28 49.5056L12.7932 43.2068L6.49435 28L12.7932 12.7932Z" fill="white" stroke="#DD00F0" stroke-width="12"/>
<path d="M24.26 24.118C24.608 23.974 24.968 23.812 25.34 23.632C25.724 23.44 26.096 23.236 26.456 23.02C26.816 22.792 27.158 22.558 27.482 22.318C27.818 22.066 28.118 21.802 28.382 21.526H30.254V34H27.572V25.018C27.212 25.258 26.81 25.48 26.366 25.684C25.922 25.876 25.49 26.044 25.07 26.188L24.26 24.118Z" fill="#222222"/>
</svg>
