<svg width="56" height="56" viewBox="0 0 56 56" fill="none" xmlns="http://www.w3.org/2000/svg">
<path d="M12.7932 12.7932L28 6.49435L43.2068 12.7932L49.5056 28L43.2068 43.2068L28 49.5056L12.7932 43.2068L6.49435 28L12.7932 12.7932Z" fill="white" stroke="#DD00F0" stroke-width="12"/>
<path d="M29.1268 24.802C28.6588 25.414 28.1608 26.08 27.6328 26.8C27.1048 27.52 26.6608 28.258 26.3008 29.014H29.1268V24.802ZM31.7548 21.526V29.014H33.0868V31.21H31.7548V34H29.1268V31.21H23.7448V29.248C24.0088 28.72 24.3388 28.126 24.7348 27.466C25.1308 26.794 25.5688 26.11 26.0488 25.414C26.5408 24.706 27.0568 24.016 27.5968 23.344C28.1368 22.672 28.6768 22.066 29.2168 21.526H31.7548Z" fill="#222222"/>
</svg>
