<svg width="56" height="56" viewBox="0 0 56 56" fill="none" xmlns="http://www.w3.org/2000/svg">
<path d="M12.7932 12.7932L28 6.49435L43.2068 12.7932L49.5056 28L43.2068 43.2068L28 49.5056L12.7932 43.2068L6.49435 28L12.7932 12.7932Z" fill="white" stroke="#DD00F0" stroke-width="12"/>
<path d="M29.8648 30.328C29.8648 29.98 29.7868 29.674 29.6308 29.41C29.4748 29.134 29.2048 28.906 28.8208 28.726C28.4368 28.546 27.9208 28.408 27.2728 28.312C26.6248 28.216 25.8088 28.168 24.8248 28.168C24.9568 27.052 25.0648 25.918 25.1488 24.766C25.2328 23.614 25.2988 22.534 25.3468 21.526H32.0968V23.776H27.5968C27.5728 24.208 27.5428 24.628 27.5068 25.036C27.4828 25.432 27.4528 25.78 27.4168 26.08C29.1688 26.2 30.4588 26.614 31.2868 27.322C32.1268 28.018 32.5468 28.99 32.5468 30.238C32.5468 30.814 32.4448 31.348 32.2408 31.84C32.0368 32.332 31.7308 32.758 31.3228 33.118C30.9148 33.478 30.3988 33.76 29.7748 33.964C29.1628 34.168 28.4428 34.27 27.6148 34.27C27.2908 34.27 26.9488 34.246 26.5888 34.198C26.2408 34.162 25.8988 34.108 25.5628 34.036C25.2388 33.976 24.9448 33.91 24.6808 33.838C24.4168 33.766 24.2128 33.694 24.0688 33.622L24.5548 31.408C24.8548 31.54 25.2508 31.672 25.7428 31.804C26.2348 31.924 26.8228 31.984 27.5068 31.984C28.3348 31.984 28.9348 31.822 29.3068 31.498C29.6788 31.162 29.8648 30.772 29.8648 30.328Z" fill="#222222"/>
</svg>
