<svg width="56" height="56" viewBox="0 0 56 56" fill="none" xmlns="http://www.w3.org/2000/svg">
<path d="M12.7932 12.7932L28 6.49435L43.2068 12.7932L49.5056 28L43.2068 43.2068L28 49.5056L12.7932 43.2068L6.49435 28L12.7932 12.7932Z" fill="white" stroke="#DD00F0" stroke-width="12"/>
<path d="M32.54 30.526C32.54 31.066 32.444 31.564 32.252 32.02C32.072 32.464 31.796 32.854 31.424 33.19C31.052 33.526 30.584 33.79 30.02 33.982C29.468 34.162 28.826 34.252 28.094 34.252C27.254 34.252 26.552 34.138 25.988 33.91C25.436 33.67 24.986 33.376 24.638 33.028C24.302 32.68 24.062 32.302 23.918 31.894C23.774 31.474 23.702 31.09 23.702 30.742C23.702 30.382 23.75 30.052 23.846 29.752C23.942 29.452 24.074 29.182 24.242 28.942C24.41 28.69 24.596 28.462 24.8 28.258C25.016 28.054 25.244 27.862 25.484 27.682C24.968 27.262 24.584 26.848 24.332 26.44C24.092 26.032 23.972 25.51 23.972 24.874C23.972 24.394 24.068 23.932 24.26 23.488C24.464 23.044 24.746 22.66 25.106 22.336C25.466 22 25.898 21.736 26.402 21.544C26.918 21.34 27.488 21.238 28.112 21.238C28.844 21.238 29.468 21.346 29.984 21.562C30.512 21.766 30.944 22.03 31.28 22.354C31.616 22.678 31.856 23.044 32 23.452C32.156 23.848 32.234 24.244 32.234 24.64C32.234 25.216 32.078 25.756 31.766 26.26C31.466 26.752 31.088 27.142 30.632 27.43C31.316 27.874 31.802 28.342 32.09 28.834C32.39 29.314 32.54 29.878 32.54 30.526ZM26.312 30.634C26.312 30.778 26.342 30.94 26.402 31.12C26.474 31.288 26.582 31.444 26.726 31.588C26.87 31.732 27.056 31.852 27.284 31.948C27.512 32.044 27.788 32.092 28.112 32.092C28.736 32.092 29.192 31.942 29.48 31.642C29.768 31.342 29.912 31.006 29.912 30.634C29.912 30.358 29.846 30.112 29.714 29.896C29.594 29.68 29.426 29.494 29.21 29.338C28.994 29.17 28.736 29.026 28.436 28.906C28.148 28.774 27.836 28.654 27.5 28.546C27.164 28.798 26.882 29.092 26.654 29.428C26.426 29.764 26.312 30.166 26.312 30.634ZM29.642 24.712C29.642 24.58 29.612 24.442 29.552 24.298C29.504 24.142 29.414 23.998 29.282 23.866C29.162 23.734 29.006 23.626 28.814 23.542C28.622 23.446 28.388 23.398 28.112 23.398C27.848 23.398 27.62 23.44 27.428 23.524C27.236 23.608 27.074 23.722 26.942 23.866C26.822 23.998 26.732 24.142 26.672 24.298C26.612 24.454 26.582 24.604 26.582 24.748C26.582 25.132 26.72 25.492 26.996 25.828C27.284 26.164 27.77 26.452 28.454 26.692C28.838 26.452 29.132 26.176 29.336 25.864C29.54 25.552 29.642 25.168 29.642 24.712Z" fill="#222222"/>
</svg>
