<svg width="56" height="56" viewBox="0 0 56 56" fill="none" xmlns="http://www.w3.org/2000/svg">
<path d="M12.7932 12.7932L28 6.49435L43.2068 12.7932L49.5056 28L43.2068 43.2068L28 49.5056L12.7932 43.2068L6.49435 28L12.7932 12.7932Z" fill="white" stroke="#DD00F0" stroke-width="12"/>
<path d="M31.928 24.802C31.928 25.258 31.838 25.696 31.658 26.116C31.478 26.536 31.244 26.944 30.956 27.34C30.668 27.724 30.344 28.096 29.984 28.456C29.624 28.816 29.27 29.158 28.922 29.482C28.742 29.65 28.544 29.842 28.328 30.058C28.124 30.262 27.926 30.472 27.734 30.688C27.542 30.904 27.368 31.108 27.212 31.3C27.068 31.48 26.978 31.63 26.942 31.75H32.306V34H23.99C23.966 33.868 23.954 33.7 23.954 33.496C23.954 33.292 23.954 33.148 23.954 33.064C23.954 32.488 24.044 31.96 24.224 31.48C24.416 31 24.662 30.556 24.962 30.148C25.262 29.728 25.598 29.338 25.97 28.978C26.354 28.618 26.732 28.258 27.104 27.898C27.392 27.622 27.662 27.364 27.914 27.124C28.166 26.872 28.388 26.632 28.58 26.404C28.772 26.164 28.922 25.93 29.03 25.702C29.138 25.462 29.192 25.222 29.192 24.982C29.192 24.454 29.042 24.082 28.742 23.866C28.442 23.65 28.07 23.542 27.626 23.542C27.302 23.542 26.996 23.596 26.708 23.704C26.432 23.8 26.174 23.92 25.934 24.064C25.706 24.196 25.508 24.334 25.34 24.478C25.172 24.61 25.046 24.718 24.962 24.802L23.63 22.93C24.158 22.438 24.77 22.036 25.466 21.724C26.174 21.4 26.93 21.238 27.734 21.238C28.466 21.238 29.096 21.322 29.624 21.49C30.152 21.658 30.584 21.898 30.92 22.21C31.268 22.51 31.52 22.882 31.676 23.326C31.844 23.758 31.928 24.25 31.928 24.802Z" fill="#222222"/>
</svg>
