<svg width="56" height="56" viewBox="0 0 56 56" fill="none" xmlns="http://www.w3.org/2000/svg">
<path d="M12.7932 12.7932L28 6.49435L43.2068 12.7932L49.5056 28L43.2068 43.2068L28 49.5056L12.7932 43.2068L6.49435 28L12.7932 12.7932Z" fill="white" stroke="#DD00F0" stroke-width="12"/>
<path d="M27.4888 34.27C27.1648 34.27 26.8228 34.246 26.4628 34.198C26.1028 34.162 25.7548 34.108 25.4188 34.036C25.0828 33.964 24.7768 33.886 24.5008 33.802C24.2248 33.718 24.0088 33.64 23.8528 33.568L24.3748 31.336C24.6868 31.468 25.0828 31.612 25.5628 31.768C26.0548 31.912 26.6608 31.984 27.3808 31.984C28.2088 31.984 28.8148 31.828 29.1988 31.516C29.5828 31.204 29.7748 30.784 29.7748 30.256C29.7748 29.932 29.7028 29.662 29.5588 29.446C29.4268 29.218 29.2408 29.038 29.0008 28.906C28.7608 28.762 28.4728 28.666 28.1368 28.618C27.8128 28.558 27.4648 28.528 27.0928 28.528H26.0488V26.368H27.2368C27.5008 26.368 27.7528 26.344 27.9928 26.296C28.2448 26.248 28.4668 26.17 28.6588 26.062C28.8508 25.942 29.0008 25.786 29.1088 25.594C29.2288 25.39 29.2888 25.138 29.2888 24.838C29.2888 24.61 29.2408 24.412 29.1448 24.244C29.0488 24.076 28.9228 23.938 28.7668 23.83C28.6228 23.722 28.4488 23.644 28.2448 23.596C28.0528 23.536 27.8548 23.506 27.6508 23.506C27.1348 23.506 26.6548 23.584 26.2108 23.74C25.7788 23.896 25.3828 24.088 25.0228 24.316L24.0688 22.354C24.2608 22.234 24.4828 22.108 24.7348 21.976C24.9988 21.844 25.2868 21.724 25.5988 21.616C25.9108 21.508 26.2408 21.418 26.5888 21.346C26.9488 21.274 27.3268 21.238 27.7228 21.238C28.4548 21.238 29.0848 21.328 29.6128 21.508C30.1528 21.676 30.5968 21.922 30.9448 22.246C31.2928 22.558 31.5508 22.93 31.7188 23.362C31.8868 23.782 31.9708 24.244 31.9708 24.748C31.9708 25.24 31.8328 25.72 31.5568 26.188C31.2808 26.644 30.9088 26.992 30.4408 27.232C31.0888 27.496 31.5868 27.892 31.9348 28.42C32.2948 28.936 32.4748 29.56 32.4748 30.292C32.4748 30.868 32.3788 31.402 32.1868 31.894C31.9948 32.374 31.6948 32.794 31.2868 33.154C30.8788 33.502 30.3568 33.778 29.7208 33.982C29.0968 34.174 28.3528 34.27 27.4888 34.27Z" fill="#222222"/>
</svg>
