<svg width="56" height="56" viewBox="0 0 56 56" fill="none" xmlns="http://www.w3.org/2000/svg">
<path d="M12.7932 12.7932L28 6.49435L43.2068 12.7932L49.5056 28L43.2068 43.2068L28 49.5056L12.7932 43.2068L6.49435 28L12.7932 12.7932Z" fill="white" stroke="#DD00F0" stroke-width="12"/>
<path d="M28.202 27.304C28.478 27.304 28.766 27.28 29.066 27.232C29.366 27.172 29.588 27.094 29.732 26.998V26.836C29.732 26.788 29.732 26.74 29.732 26.692C29.744 26.644 29.75 26.602 29.75 26.566C29.738 26.134 29.702 25.732 29.642 25.36C29.582 24.976 29.48 24.646 29.336 24.37C29.192 24.082 28.994 23.86 28.742 23.704C28.502 23.536 28.202 23.452 27.842 23.452C27.554 23.452 27.302 23.512 27.086 23.632C26.87 23.752 26.696 23.908 26.564 24.1C26.432 24.292 26.33 24.502 26.258 24.73C26.198 24.958 26.168 25.18 26.168 25.396C26.168 26.044 26.324 26.524 26.636 26.836C26.96 27.148 27.482 27.304 28.202 27.304ZM29.516 29.05C29.264 29.17 28.982 29.26 28.67 29.32C28.37 29.368 28.112 29.392 27.896 29.392C27.116 29.392 26.45 29.302 25.898 29.122C25.346 28.93 24.89 28.666 24.53 28.33C24.182 27.982 23.924 27.568 23.756 27.088C23.588 26.608 23.504 26.08 23.504 25.504C23.504 25.024 23.582 24.532 23.738 24.028C23.906 23.524 24.164 23.068 24.512 22.66C24.86 22.24 25.298 21.898 25.826 21.634C26.366 21.358 27.014 21.22 27.77 21.22C29.318 21.22 30.482 21.7 31.262 22.66C32.054 23.608 32.45 24.976 32.45 26.764C32.45 27.94 32.294 28.978 31.982 29.878C31.682 30.778 31.208 31.534 30.56 32.146C29.924 32.758 29.108 33.226 28.112 33.55C27.116 33.862 25.934 34.024 24.566 34.036C24.554 33.652 24.536 33.28 24.512 32.92C24.488 32.56 24.464 32.188 24.44 31.804C25.124 31.792 25.742 31.744 26.294 31.66C26.846 31.564 27.332 31.414 27.752 31.21C28.172 30.994 28.526 30.712 28.814 30.364C29.114 30.016 29.348 29.578 29.516 29.05Z" fill="#222222"/>
</svg>
