<svg width="56" height="56" viewBox="0 0 56 56" fill="none" xmlns="http://www.w3.org/2000/svg">
<path d="M12.7932 12.7932L28 6.49435L43.2068 12.7932L49.5056 28L43.2068 43.2068L28 49.5056L12.7932 43.2068L6.49435 28L12.7932 12.7932Z" fill="white" stroke="#DD00F0" stroke-width="12"/>
<path d="M27.932 28.132C27.668 28.132 27.386 28.156 27.086 28.204C26.786 28.252 26.552 28.318 26.384 28.402C26.384 28.45 26.378 28.522 26.366 28.618C26.366 28.714 26.366 28.798 26.366 28.87C26.366 29.302 26.396 29.71 26.456 30.094C26.516 30.478 26.618 30.814 26.762 31.102C26.906 31.39 27.098 31.618 27.338 31.786C27.578 31.942 27.878 32.02 28.238 32.02C28.538 32.02 28.79 31.96 28.994 31.84C29.21 31.708 29.384 31.546 29.516 31.354C29.66 31.162 29.762 30.952 29.822 30.724C29.894 30.484 29.93 30.256 29.93 30.04C29.93 29.428 29.774 28.96 29.462 28.636C29.162 28.3 28.652 28.132 27.932 28.132ZM28.274 26.044C29.054 26.044 29.714 26.152 30.254 26.368C30.806 26.572 31.256 26.854 31.604 27.214C31.952 27.574 32.204 27.994 32.36 28.474C32.516 28.954 32.594 29.464 32.594 30.004C32.594 30.484 32.504 30.976 32.324 31.48C32.156 31.984 31.892 32.44 31.532 32.848C31.184 33.256 30.734 33.592 30.182 33.856C29.642 34.12 29 34.252 28.256 34.252C26.756 34.252 25.616 33.778 24.836 32.83C24.056 31.882 23.666 30.574 23.666 28.906C23.666 27.706 23.852 26.644 24.224 25.72C24.596 24.796 25.124 24.022 25.808 23.398C26.504 22.762 27.338 22.282 28.31 21.958C29.294 21.622 30.398 21.448 31.622 21.436C31.646 21.808 31.67 22.174 31.694 22.534C31.718 22.882 31.742 23.248 31.766 23.632C31.154 23.644 30.578 23.704 30.038 23.812C29.51 23.908 29.024 24.064 28.58 24.28C28.148 24.496 27.77 24.778 27.446 25.126C27.122 25.462 26.87 25.876 26.69 26.368C26.954 26.248 27.224 26.164 27.5 26.116C27.776 26.068 28.034 26.044 28.274 26.044Z" fill="#222222"/>
</svg>
